#!OML:ASF H:\MichaelJackson\Top Level 1\Subject 1\Session 1\male.ASF
:FULLY-SPECIFIED
:DEGREES
432
root 0.421956 15.9492 22.7796 7.67459 0.326238 -4.8604
lowerback 12.3216 3.10981 4.1633
upperback 3.53313 4.65864 1.28375
thorax -2.95809 2.29634 -1.66967
lowerneck -8.20593 -1.99599 3.75696
upperneck 2.42189 -2.99646 -1.14253
head 2.10475 -1.48729 -1.13952
rclavicle 7.5737e-014 1.17283e-014
rhumerus -42.6795 -2.10523 -82.7729
rradius 97.8866
rwrist 7.72382
rhand -40.6649 -29.4443
rfingers 7.12502
rthumb -13.6087 -418.979
lclavicle 7.5737e-014 1.17283e-014
lhumerus -41.4417 -23.2802 93.9026
lradius 115.929
lwrist 40.1584
lhand -31.9522 1.55522
lfingers 7.12502
lthumb -5.2026 31.4714
rfemur -28.4036 -5.90138 14.5809
rtibia 51.4131
rfoot -26.7811 -1.79227
rtoes -29.1283
lfemur -63.5417 15.988 -8.1992
ltibia 103.007
lfoot -7.60643 0.557257
ltoes 24.3644
433
root 0.44911 15.9542 22.857 7.69861 0.156475 -4.76876
lowerback 12.1719 3.09968 4.01992
upperback 3.49251 4.61871 1.19664
thorax -2.92556 2.27757 -1.66696
lowerneck -8.08186 -1.88471 3.83902
upperneck 2.51913 -2.84976 -1.18559
head 2.11707 -1.41322 -1.16097
rclavicle 3.60794e-014 6.55989e-015
rhumerus -42.0949 -2.33739 -82.5071
rradius 98.4676
rwrist 6.78198
rhand -40.5676 -29.2192
rfingers 7.12502
rthumb -13.5149 -418.761
lclavicle 3.60794e-014 6.55989e-015
lhumerus -39.9018 -20.8655 91.2932
lradius 116.061
lwrist 43.8392
lhand -32.1938 2.5583
lfingers 7.12502
lthumb -5.43584 32.4686
rfemur -28.0243 -5.67225 14.3316
rtibia 51.2912
rfoot -27.0393 -2.06894
rtoes -29.5045
lfemur -62.7305 15.1459 -7.15351
ltibia 99.3215
lfoot -7.85819 1.81674
ltoes 24.8294
434
root 0.478707 15.9596 22.9341 7.7321 0.00421211 -4.70643
lowerback 11.9973 3.08279 3.9041
upperback 3.4478 4.57306 1.12088
thorax -2.88259 2.25609 -1.66558
lowerneck -7.90617 -1.77756 3.92826
upperneck 2.61433 -2.70758 -1.21339
head 2.11941 -1.34077 -1.17804
rclavicle 8.94531e-016 3.57812e-015
rhumerus -41.3001 -3.00078 -82.0747
rradius 98.6923
rwrist 4.73056
rhand -40.2876 -28.9678
rfingers 7.12502
rthumb -13.245 -418.527
lclavicle 8.94531e-016 3.57812e-015
lhumerus -38.1722 -18.0797 88.5599
lradius 115.59
lwrist 47.927
lhand -32.8143 3.72213
lfingers 7.12502
lthumb -6.0349 33.6162
rfemur -27.5921 -5.42775 14.1064
rtibia 51.0009
rfoot -27.1773 -2.31186
rtoes -29.8417
lfemur -61.8224 14.3218 -6.0802
ltibia 95.4123
lfoot -8.02012 3.17978
ltoes 25.3316
435
root 0.510676 15.9655 23.0112 7.75852 -0.122299 -4.67356
lowerback 11.8059 3.05799 3.80733
upperback 3.40659 4.51964 1.06721
thorax -2.82735 2.23101 -1.64979
lowerneck -7.68581 -1.6765 4.00878
upperneck 2.72171 -2.57111 -1.22664
head 2.11782 -1.27057 -1.18866
rclavicle -5.33737e-014 -1.59028e-015
rhumerus -40.2949 -4.10857 -81.4826
rradius 98.5317
rwrist 1.62051
rhand -39.9193 -28.8872
rfingers 7.12502
rthumb -12.8899 -418.469
lclavicle -5.33737e-014 -1.59028e-015
lhumerus -36.2727 -14.9346 85.8062
lradius 114.405
lwrist 52.2515
lhand -33.8158 4.93849
lfingers 7.12502
lthumb -7.00177 34.8027
rfemur -27.1438 -5.17965 13.9091
rtibia 50.6936
rfoot -27.2766 -2.56502
rtoes -30.1564
lfemur -60.7892 13.4932 -4.97112
ltibia 91.322
lfoot -8.15342 4.59276
ltoes 25.8751
436
root 0.54506 15.9716 23.0882 7.76903 -0.233375 -4.66417
lowerback 11.6147 3.0322 3.72296
upperback 3.364 4.46761 1.0346
thorax -2.77412 2.20644 -1.61951
lowerneck -7.41454 -1.58699 4.07443
upperneck 2.85336 -2.4468 -1.22519
head 2.11494 -1.20574 -1.19205
rclavicle 2.5842e-015 2.0276e-014
rhumerus -39.1211 -5.59848 -80.7669
rradius 97.9559
rwrist -2.40428
rhand -39.7961 -29.4195
rfingers 7.12502
rthumb -12.7713 -419.009
lclavicle 2.5842e-015 2.0276e-014
lhumerus -34.263 -11.5042 83.1518
lradius 112.445
lwrist 56.5932
lhand -35.0908 6.10847
lfingers 7.12502
lthumb -8.23242 35.9281
rfemur -26.6745 -4.92958 13.7348
rtibia 50.3711
rfoot -27.3359 -2.83325
rtoes -30.4553
lfemur -59.6178 12.6526 -3.83177
ltibia 87.0499
lfoot -8.25384 5.99113
ltoes 26.4188
437
root 0.581854 15.9778 23.1656 7.75779 -0.328662 -4.66957
lowerback 11.4291 3.0059 3.6402
upperback 3.31935 4.41663 1.02489
thorax -2.72761 2.18212 -1.56721
lowerneck -7.10004 -1.50736 4.11893
upperneck 3.02365 -2.33186 -1.21668
head 2.11691 -1.14505 -1.18984
rclavicle 7.40473e-015 -1.94809e-014
rhumerus -37.8022 -7.43683 -79.9622
rradius 96.9881
rwrist -7.11226
rhand -39.7745 -30.8145
rfingers 7.12502
rthumb -12.7504 -420.405
lclavicle 7.40473e-015 -1.94809e-014
lhumerus -32.2084 -7.89238 80.7026
lradius 109.703
lwrist 60.6807
lhand -36.4482 7.21771
lfingers 7.12502
lthumb -9.54223 36.9816
rfemur -26.1744 -4.68685 13.5774
rtibia 50.0329
rfoot -27.3538 -3.13492
rtoes -30.7643
lfemur -58.3008 11.7768 -2.66502
ltibia 82.5963
lfoot -8.32166 7.30626
ltoes 27.0014
438
root 0.621117 15.9838 23.2437 7.7162 -0.416923 -4.68157
lowerback 11.2566 2.98079 3.55244
upperback 3.27451 4.36825 1.03462
thorax -2.69003 2.15883 -1.49341
lowerneck -6.74887 -1.43449 4.14691
upperneck 3.24109 -2.22242 -1.21355
head 2.12767 -1.08679 -1.18695
rclavicle 1.22253e-014 -1.98785e-015
rhumerus -36.3859 -9.58046 -79.1131
rradius 95.6835
rwrist -12.3844
rhand -39.7553 -33.0483
rfingers 7.12502
rthumb -12.7319 -422.64
lclavicle 1.22253e-014 -1.98785e-015
lhumerus -30.1779 -4.25428 78.5211
lradius 106.26
lwrist 64.2725
lhand -37.7648 8.35713
lfingers 7.12502
lthumb -10.8124 38.0588
rfemur -25.6317 -4.44963 13.4291
rtibia 49.6781
rfoot -27.3369 -3.49313
rtoes -31.1273
lfemur -56.8253 10.8484 -1.47234
ltibia 77.9675
lfoot -8.35136 8.4762
ltoes 27.5636
439
root 0.662775 15.9891 23.3232 7.64946 -0.506235 -4.69489
lowerback 11.097 2.95421 3.45285
upperback 3.22356 4.31824 1.06041
thorax -2.66784 2.13431 -1.39746
lowerneck -6.36493 -1.35877 4.16273
upperneck 3.51344 -2.1059 -1.22424
head 2.15077 -1.0248 -1.18658
rclavicle -3.47873e-016 1.51076e-014
rhumerus -34.9605 -11.9157 -78.2799
rradius 94.1589
rwrist -18.1357
rhand -39.7788 -35.9651
rfingers 7.12502
rthumb -12.7546 -425.556
lclavicle -3.47873e-016 1.51076e-014
lhumerus -28.2632 -0.746643 76.6304
lradius 102.293
lwrist 67.1874
lhand -38.8942 9.7259
lfingers 7.12502
lthumb -11.9016 39.3676
rfemur -25.049 -4.21108 13.2831
rtibia 49.306
rfoot -27.2963 -3.9136
rtoes -31.5458
lfemur -55.2012 9.8555 -0.256621
ltibia 73.1841
lfoot -8.33711 9.46062
ltoes 28.0348
440
root 0.706869 15.9929 23.4047 7.56623 -0.610834 -4.70716
lowerback 10.9502 2.9208 3.33918
upperback 3.15892 4.25919 1.09403
thorax -2.66868 2.10473 -1.28597
lowerneck -5.96389 -1.26686 4.18496
upperneck 3.85237 -1.96603 -1.26417
head 2.19326 -0.951046 -1.1968
rclavicle 1.63997e-014 -1.05356e-014
rhumerus -33.6072 -14.3019 -77.5212
rradius 92.5894
rwrist -24.3305
rhand -39.9776 -39.4888
rfingers 7.12502
rthumb -12.9462 -429.067
lclavicle 1.63997e-014 -1.05356e-014
lhumerus -26.5736 2.45934 74.9851
lradius 98.0635
lwrist 69.4155
lhand -39.7507 11.3109
lfingers 7.12502
lthumb -12.7275 40.903
rfemur -24.4327 -3.96192 13.1331
rtibia 48.9168
rfoot -27.2516 -4.39767
rtoes -32.0314
lfemur -53.4481 8.79672 0.978663
ltibia 68.2853
lfoot -8.28553 10.2484
ltoes 28.2952
441
root 0.753423 15.994 23.489 7.48235 -0.736904 -4.72172
lowerback 10.8046 2.87537 3.20626
upperback 3.07808 4.18323 1.13337
thorax -2.68914 2.06634 -1.15665
lowerneck -5.5786 -1.14798 4.22607
upperneck 4.26841 -1.79034 -1.33775
head 2.26517 -0.859177 -1.22146
rclavicle 7.7526e-015 1.48095e-014
rhumerus -32.4307 -16.5984 -76.863
rradius 91.1459
rwrist -30.8076
rhand -40.4974 -43.1034
rfingers 7.12502
rthumb -13.4472 -432.649
lclavicle 7.7526e-015 1.48095e-014
lhumerus -25.2243 5.20697 73.5177
lradius 93.8918
lwrist 71.0829
lhand -40.421 13.0169
lfingers 7.12502
lthumb -13.3736 42.5677
rfemur -23.7977 -3.69183 12.9766
rtibia 48.5152
rfoot -27.2284 -4.93866
rtoes -32.579
lfemur -51.6059 7.67427 2.23318
ltibia 63.3353
lfoot -8.21115 10.8632
ltoes 28.2684
442
root 0.802644 15.9912 23.5763 7.41856 -0.879767 -4.74362
lowerback 10.6472 2.80974 3.05291
upperback 2.98386 4.07884 1.17873
thorax -2.71943 2.01375 -1.00628
lowerneck -5.2519 -0.992766 4.30349
upperneck 4.75482 -1.56851 -1.4548
head 2.37288 -0.744219 -1.26701
rclavicle 8.48314e-014 1.39149e-015
rhumerus -31.5161 -18.5896 -76.3421
rradius 89.9726
rwrist -37.044
rhand -41.3796 -46.3717
rfingers 7.12502
rthumb -14.2974 -435.86
lclavicle 8.48314e-014 1.39149e-015
lhumerus -24.3228 7.38984 72.162
lradius 90.1143
lwrist 72.3463
lhand -40.9725 14.7365
lfingers 7.12502
lthumb -13.9051 44.2516
rfemur -23.1662 -3.40136 12.8115
rtibia 48.1093
rfoot -27.2549 -5.51322
rtoes -33.1633
lfemur -49.74 6.49553 3.50124
ltibia 58.4224
lfoot -8.13339 11.3728
ltoes 27.94
443
root 0.854637 15.9832 23.6668 7.40037 -1.04274 -4.78034
lowerback 10.4565 2.7235 2.87915
upperback 2.88517 3.94447 1.22914
thorax -2.73797 1.94672 -0.834222
lowerneck -5.03497 -0.799931 4.42254
upperneck 5.29002 -1.30141 -1.60625
head 2.51964 -0.60666 -1.33184
rclavicle -1.59773e-014 5.96354e-015
rhumerus -30.9002 -20.0188 -76.0099
rradius 89.1295
rwrist -42.2159
rhand -42.3625 -48.7519
rfingers 7.12502
rthumb -15.2443 -438.17
lclavicle -1.59773e-014 5.96354e-015
lhumerus -23.953 8.9173 70.8727
lradius 87.0525
lwrist 73.342
lhand -41.3143 16.3273
lfingers 7.12502
lthumb -14.2345 45.8195
rfemur -22.5717 -3.0847 12.6378
rtibia 47.7107
rfoot -27.3506 -6.09292
rtoes -33.763
lfemur -47.9244 5.30098 4.76804
ltibia 53.6568
lfoot -8.06274 11.8766
ltoes 27.3099
